<?xml version="1.0" encoding="UTF-8" standalone="no"?>
<svg width="18px" height="18px" viewBox="0 0 18 18" version="1.1" xmlns="http://www.w3.org/2000/svg" xmlns:xlink="http://www.w3.org/1999/xlink">
    <!-- Generator: Sketch 3.8.3 (29802) - http://www.bohemiancoding.com/sketch -->
    <title>embed</title>
    <desc>Created with Sketch.</desc>
    <defs></defs>
    <g id="Symbols" stroke="none" stroke-width="1" fill="none" fill-rule="evenodd" opacity="0.410389459">
        <g id="Actions2" transform="translate(-232.000000, -28.000000)" fill="#0B2747">
            <g id="embed" transform="translate(232.000000, 28.000000)">
                <path d="M14.1315722,10.4503682 L16.6319655,7.95766672 C18.4560115,6.13991211 18.4560115,3.18151305 16.6319655,1.36375845 C14.8081167,-0.454586148 11.8403179,-0.454586148 10.0164691,1.36375845 L6.40803453,4.96052508 C4.58398849,6.77827968 4.58398849,9.73667874 6.40803453,11.5544333 C6.67735014,11.8230748 6.97211756,12.0508104 7.28405015,12.24 L9.21582243,10.3142775 C8.84785641,10.2265659 8.49883127,10.0415061 8.21235048,9.75614836 C7.38329246,8.92977112 7.38329246,7.58499064 8.21235048,6.75881006 L11.8207851,3.16204343 C12.6498431,2.33566619 13.9989861,2.33566619 14.8278468,3.16204343 C15.6569048,3.98842067 15.6569048,5.33300449 14.8278468,6.15938173 L13.7677495,7.21624782 C14.2045735,8.24105787 14.3253216,9.36813259 14.1315722,10.4503682 L14.1315722,10.4503682 Z" id="Shape"></path>
                <path d="M3.86861254,7.54965339 L1.36819552,10.0421882 C-0.456065174,11.8601614 -0.456065174,14.8183994 1.36819552,16.6363726 C3.19186431,18.4545425 6.15988871,18.4545425 7.9837548,16.6363726 L11.5920264,13.0395626 C13.4160898,11.2215895 13.4158925,8.26335142 11.5920264,6.44557491 C11.3229056,6.17693024 11.0281353,5.94919193 10.7161998,5.76 L8.78440913,7.68574571 C9.15218135,7.77365506 9.50120981,7.95832369 9.78789062,8.24388157 C10.6169565,9.07026877 10.6169565,10.4148688 9.78789062,11.241256 L6.17922438,14.838066 C5.35015846,15.6644532 4.00119995,15.6644532 3.17213404,14.838066 C2.34306813,14.0116788 2.34306813,12.6670787 3.17213404,11.8406915 L4.23243871,10.7840094 C3.79541324,9.75918699 3.674664,8.63190202 3.86861254,7.54965339 L3.86861254,7.54965339 Z" id="Shape"></path>
            </g>
        </g>
    </g>
</svg>