<?xml version="1.0" encoding="UTF-8" standalone="no"?>
<svg width="15px" height="15px" viewBox="0 0 15 15" version="1.1" xmlns="http://www.w3.org/2000/svg" xmlns:xlink="http://www.w3.org/1999/xlink">
    <!-- Generator: Sketch 3.8.3 (29802) - http://www.bohemiancoding.com/sketch -->
    <title>Shape</title>
    <desc>Created with Sketch.</desc>
    <defs></defs>
    <g id="Page-1" stroke="none" stroke-width="1" fill="none" fill-rule="evenodd">
        <g id="01-Home" transform="translate(-1138.000000, -2022.000000)" fill="#FFFFFF">
            <path d="M1152.17209,2022 L1138.82786,2022 C1138.37048,2022 1138,2022.3706 1138,2022.82786 L1138,2036.17214 C1138,2036.62935 1138.37054,2037 1138.82786,2037 L1146.01194,2037 L1146.01194,2031.19123 L1144.05718,2031.19123 L1144.05718,2028.92741 L1146.01194,2028.92741 L1146.01194,2027.25793 C1146.01194,2025.32048 1147.19522,2024.26551 1148.92361,2024.26551 C1149.75141,2024.26551 1150.46304,2024.32716 1150.67037,2024.3547 L1150.67037,2026.37944 L1149.47163,2026.38 C1148.53171,2026.38 1148.34973,2026.82664 1148.34973,2027.48206 L1148.34973,2028.92741 L1150.59146,2028.92741 L1150.29955,2031.19123 L1148.34978,2031.19123 L1148.34978,2037 L1152.1722,2037 C1152.62935,2037 1153,2036.62929 1153,2036.17214 L1153,2022.82786 C1152.99989,2022.37054 1152.62923,2022 1152.17209,2022 L1152.17209,2022 Z" id="Shape"></path>
        </g>
    </g>
</svg>