<?xml version="1.0" encoding="UTF-8" standalone="no"?>
<svg width="40px" height="54px" viewBox="0 0 40 54" version="1.1" xmlns="http://www.w3.org/2000/svg" xmlns:xlink="http://www.w3.org/1999/xlink">
    <!-- Generator: Sketch 3.8.3 (29802) - http://www.bohemiancoding.com/sketch -->
    <title>Logo</title>
    <desc>Created with Sketch.</desc>
    <defs></defs>
    <g id="Page-1" stroke="none" stroke-width="1" fill="none" fill-rule="evenodd">
        <g id="01-Home" transform="translate(-21.000000, -13.000000)">
            <g id="Logo" transform="translate(23.000000, 15.000000)">
                <g id="Group">
                    <polygon id="Stroke-2" stroke="#0B2747" stroke-width="3" stroke-linecap="round" stroke-linejoin="round" fill="#50B4E0" points="3.55271368e-15 50 35.586383 50 35.586383 0.181818182 3.55271368e-15 0.181818182"></polygon>
                    <polygon id="Fill-1" fill="#0B2747" points="16 16 11.5242829 12.0943563 7 16 7 0 16 0"></polygon>
                    <polyline id="Fill-7" fill="#FEFEFE" points="1.00861466 40.9535723 17.4051781 28 24.0456427 33.5636325 28.3773793 29.9856784 34.081 34.1020486 34.081 41.5666487 1 41.2220624"></polyline>
                    <polyline id="Stroke-4" stroke="#0B2747" stroke-width="3" stroke-linecap="round" stroke-linejoin="round" points="0.299182979 40.6819697 17.7936511 27.0122727 24.8787574 32.8834848 29.5005447 29.1077273 35.5860766 33.4516667"></polyline>
                    <polygon id="Fill-6" fill="#0B2747" points="8.363065 34 0.302970297 40.4084219 0 50 36 50 36 39.2699093 30.0723203 35.8910225 24.5266466 40.0770056 17.2259148 35.1751633"></polygon>
                </g>
            </g>
        </g>
    </g>
</svg>