<?xml version="1.0" encoding="utf-8"?>
<!-- Generator: Adobe Illustrator 16.0.0, SVG Export Plug-In . SVG Version: 6.00 Build 0)  -->
<!DOCTYPE svg PUBLIC "-//W3C//DTD SVG 1.1//EN" "http://www.w3.org/Graphics/SVG/1.1/DTD/svg11.dtd">
<svg version="1.1" id="Layer_1" xmlns="http://www.w3.org/2000/svg" xmlns:xlink="http://www.w3.org/1999/xlink" x="0px" y="0px"
	 width="36px" height="36px" viewBox="0 0 36 36" enable-background="new 0 0 36 36" xml:space="preserve">
<g>
	<path fill="#FFFFFF" d="M35.297,31.904l-9.167-9.166c1.68-2.355,2.67-5.232,2.67-8.338C28.8,6.46,22.341,0,14.4,0S0,6.46,0,14.4
		c0,7.941,6.46,14.4,14.4,14.4c3.105,0,5.981-0.99,8.337-2.67l9.166,9.166C32.372,35.768,32.986,36,33.601,36
		c0.613,0,1.229-0.232,1.696-0.701C36.234,34.361,36.234,32.842,35.297,31.904z M14.4,24c-5.302,0-9.6-4.297-9.6-9.6
		c0-5.301,4.298-9.599,9.6-9.599S24,9.099,24,14.4C24,19.703,19.702,24,14.4,24z"/>
</g>
</svg>
